<!-- assets/svg/galerija-mobile.hotspots.svg -->
<svg xmlns="http://www.w3.org/2000/svg"
     viewBox="0 0 1920 1500"
     class="heroMap"
     role="img"
     aria-label="Galerija – interaktivna naslovna ilustracija">

  <!-- Background image (mobile) -->
  <image href="../img/galerija-mobile.jpg"
         x="0" y="0" width="1920" height="1500"
         preserveAspectRatio="xMidYMid slice" />

  <!-- Hotspot 1 -->
  <a href="galerija.html#hotspot-1" aria-label="Hotspot 1" class="hsLink">
    <path class="hotspot"
      d="M645.572,1004.03C638.441,1005.29 631.221,1018.19 608.86,1040.55C605.694,1043.71 576.992,1072.41 568.587,1079.42C561.168,1085.6 566.596,1087.16 566.135,1089.92C565.099,1096.14 558.707,1094.68 561.583,1100.43C562.997,1103.26 556.096,1103.84 554.406,1108.41C554.296,1109.96 556.69,1110.07 561.314,1110.76C558.244,1117.66 547.533,1130.19 565.785,1134.75C570.505,1135.93 571.016,1132.15 626.02,1143.16C668.044,1151.56 695.829,1165.56 701.756,1168.52C703.726,1169.51 705.73,1171.96 708.555,1171.28C712.644,1167.92 712.811,1164.43 715.321,1163.47C717.369,1162.68 724.547,1167.64 727.01,1164.19C735.16,1152.78 742.142,1140.8 754.944,1120.27C756.76,1117.35 762.717,1108.51 782.559,1072.07C791.239,1056.12 755.449,1030.95 746.839,1022.34C743.94,1019.44 723.675,1009.41 669.435,1009.31C660.65,1009.3 653.931,1004.48 645.572,1004.03Z" />
  </a>

  <!-- Hotspot 2 -->
  <a href="galerija.html#hotspot-2" aria-label="Hotspot 2" class="hsLink">
    <path class="hotspot"
      d="M1093.85,994.448C1093.85,988.585 1086.8,989.494 1081.98,991.905C1078.5,993.642 1079.27,995.607 1065.87,997.84C1049.06,1000.64 1033.14,1001.26 1009.48,1017.91C1002.42,1022.88 1003.36,1027.55 1003.55,1028.51C1003.72,1029.34 1004.38,1029.1 1007.08,1038.54C1009.73,1047.81 1020.14,1047.87 1017.12,1069.06C1015.57,1079.86 1014.44,1079.61 1013.44,1090.54C1012.32,1102.87 1012.24,1105.76 1024.46,1108.21C1035.58,1110.43 1089.1,1111.81 1089.61,1106.09C1091.45,1085.34 1092.17,1057.49 1092.48,1048.87C1092.6,1045.45 1093.85,1001.38 1093.85,994.448Z" />
  </a>

  <!-- Hotspot BOOKS -->
  <a href="galerija.html#books" aria-label="Knjige" class="hsLink">
    <path class="hotspot"
      d="M1349.02,836.622C1349.02,806.985 1349.56,795.38 1338.28,800.157C1334.27,801.858 1336.18,810.166 1338.28,836.622C1338.34,837.357 1341.59,862.147 1342.39,870.087C1343.11,877.273 1345.49,884.401 1340.34,879.243C1337.56,876.468 1335.13,842.823 1332.13,837.569C1328.68,831.543 1332.7,793.292 1331.02,782.161C1330.72,780.134 1320.68,773.323 1321.08,794.001C1321.45,813.271 1320.96,838.17 1321.39,848.461C1316.42,823.585 1313.46,821.219 1310.47,824.465C1307.08,814.499 1309.6,811.105 1304.5,804.735C1294.78,792.585 1299.94,815.373 1300.16,816.339C1297.62,813.198 1296.92,812.254 1293.2,815.24C1292.33,817.583 1295.93,820.644 1297.35,825.53C1294.71,824.01 1295.73,823.113 1293.61,820.994C1287.73,815.118 1288.12,821.948 1287.56,824.263C1283.89,813.976 1276.57,823.693 1281.45,833.465C1290.66,851.881 1288.75,852.512 1288.72,853.828C1288.42,865.49 1292.99,865.003 1302.77,886.189C1307.96,897.434 1308.57,897.032 1313.78,908.226C1311.1,914.039 1313.79,914.111 1321.24,930.073C1327.79,944.123 1338.14,950.268 1326.13,962.276C1326.05,962.354 1324.24,967.793 1324.08,968.274C1321.03,977.423 1331.07,978.994 1331.18,984.533C1332.01,1026.18 1326.22,1028.67 1337.65,1040.1C1353.44,1055.89 1404.79,1057.76 1402.85,1024.79C1400.19,979.619 1405.56,980.114 1405.85,976.325C1406.34,969.873 1400.75,965.953 1405.06,961.644C1407.28,959.417 1405.41,958.213 1426.53,928.652C1435.21,916.497 1442.1,906.163 1443.42,904.184C1455.22,886.479 1484.39,854.813 1480.2,851.145C1472.25,844.19 1462.7,859.869 1453.23,870.558C1451.98,851.168 1453.73,851.217 1452.89,831.886C1452.49,822.846 1451.53,822.278 1456.99,814.995C1461.03,809.608 1456.64,799.133 1450.2,807.576C1447.68,810.891 1442.16,821.925 1441.52,823.204C1439.75,826.747 1438.69,825.304 1435.81,823.413C1436.56,821.926 1439.19,816.666 1443.1,803.945C1443.8,801.669 1439.21,795.05 1434.73,799.526C1434.9,794.641 1437.27,781.923 1429.05,782.951C1425.04,783.452 1425.53,804.394 1418.05,819.846C1407.72,812.508 1383,809.535 1371.12,813.89C1364.84,816.192 1363.84,815.38 1360.65,818.42C1357.11,821.808 1355.07,823.913 1352.65,832.675C1352.48,833.289 1351.36,835.732 1351.23,835.99C1350.48,837.482 1349.95,838.083 1349.02,836.622Z" />
  </a>

  <!-- Hotspot center -->
  <a href="galerija.html#center" aria-label="Center" class="hsLink">
    <path class="hotspot"
      d="M980.509,677.685C979.897,677.206 927.091,698.468 955.689,701.646C971.063,703.354 968.464,708.122 972.415,719.183C982.058,746.183 983.037,746.806 987.354,746.951C1005.4,747.553 1012.06,747.543 1034.77,747.6C1063.91,747.673 1063.99,747.548 1071.63,745.002C1080.84,741.933 1063.29,721.73 1058.17,714.631C1063.47,710.793 1090.15,699.919 1089.49,690.441C1089.41,689.262 1092.08,689.916 1093.23,676.152C1095.32,651.097 1095.29,648.183 1097.29,626.3C1097.69,621.928 1097.02,619.135 1092.66,618.739C1086.84,618.21 1088.54,618.409 1082.67,618.018C1055.47,616.207 1053.86,616.014 1025.03,613.796C987.458,610.907 986.508,613.156 985.892,616.232C985.136,620.014 985.328,620.015 980.509,677.685Z" />
  </a>

  <!-- Hotspot left small -->
  <a href="galerija.html#left" aria-label="Levo" class="hsLink">
    <path class="hotspot"
      d="M555.22,745.981C556.446,744.755 588.16,734.146 593.967,736.082C597.31,737.197 619.523,753.322 617.63,755.691C616.322,757.329 615.161,757.797 602.656,763.755C601.67,764.225 599.234,765.863 587.651,770.776C572.969,777.002 568.955,778.102 567.354,777.746C566.021,777.45 564.699,776.606 563.545,775.62C563.371,775.471 560.54,772.324 561.631,770.87C561.932,770.468 562.034,770.684 566.435,766.83C566.81,761.734 564.719,762.436 554.56,749.375C554.437,749.217 553.281,747.731 554.089,746.924C555.07,745.943 555.269,745.874 555.22,745.981Z" />
  </a>

</svg>
