<?xml version="1.0" encoding="UTF-8" standalone="no"?><!DOCTYPE svg PUBLIC "-//W3C//DTD SVG 1.1//EN" "http://www.w3.org/Graphics/SVG/1.1/DTD/svg11.dtd"><svg width="100%" height="100%" viewBox="0 0 461 260" version="1.1" xmlns="http://www.w3.org/2000/svg" xmlns:xlink="http://www.w3.org/1999/xlink" xml:space="preserve" xmlns:serif="http://www.serif.com/" style="fill-rule:evenodd;clip-rule:evenodd;stroke-linecap:round;stroke-linejoin:round;stroke-miterlimit:1.5;"><g transform="matrix(0.24,0,0,0.24,0,0)"><g id="hotspot-newspaper"><path d="M563.8,888.8c-5.7,-6.9 8.7,-7.8 2.7,-12.6c-2,-1.6 2.9,0.2 22.5,-23.3c2.4,-2.9 3.1,-2.2 31.9,-34.6c0.1,-0.1 7.4,-5.5 21.7,-19.8c4.5,-4.5 5.2,-3.4 9.4,-1.3c2.5,1.3 32.1,6.4 33.8,6.4c22.8,1 36.4,-3.5 62.9,14.2c2.9,1.9 23.5,15.7 28.9,31.9c5.1,15.4 0.4,16 -23,58.1c-6.8,12.3 -23.2,34.7 -26.8,43.7c-1.8,4.4 -6.8,-3.7 -7.5,1.1c-0.4,2.8 3.9,9.9 -5.4,6.2c-60.8,-24.3 -88.5,-23.7 -127.5,-36.7c-22.6,-7.5 -34.4,-1.2 -28.9,-10.7c0.1,-0.2 0.3,0.1 1.9,-2.4c1.5,-2.4 1.4,-2.1 2.9,-4.3c-1.7,-0.2 -16.3,-0.1 -6.4,-8.3c0.6,-0.5 0.3,-0.8 7,-7.5Z" style="fill:none;stroke:#000;stroke-width:3.9px;"/></g><g id="hotspot-bag"><path d="M1091.5,781c-14.3,1.3 -14.3,8.5 -39.3,11.6c-27.2,3.4 -40,16.2 -42.6,18.8c-4.3,4.3 -7.2,5.5 -3.5,9.9c0.2,0.3 12.1,17 13.5,24.2c2.4,12 -6.7,39.3 -2.3,48.2c2.3,4.6 61.6,4.2 70.7,1.4c0.3,-5.5 0.7,-10 1.1,-27.1c0.1,-3.5 -1,-6.3 1.3,-51c0.3,-6.8 0.6,-23.9 1,-36Z" style="fill:none;stroke:#000;stroke-width:3.9px;"/></g><g id="hotspot-brushes"><path d="M1337.4,751.2c-11.6,1.7 -11,7 -11.2,7.8c-3,8.9 7.5,11 7.7,11.1c-0.2,4.1 -0,4.1 -0.4,51.2c0.7,0.4 4.4,8 16.1,10.8c15.1,3.5 26.9,4.2 42,-1.8c1.7,-0.7 11.4,-8.4 11.3,-9.6c-1,-46.1 -3,-48.5 0.8,-49.6c11.2,-3.2 8.2,-17 -1.4,-15.8c10.2,-15.9 42.9,-62.6 51.1,-72.3c1.7,-2 39.2,-45.3 24.2,-44.1c-1.7,0.1 -19.7,16.7 -25,22.8c0.7,-9.3 -0.7,-46.3 1,-48.6c0.9,-1.3 10.3,-14.2 5.3,-18.7c-4,-3.6 -9.9,5.6 -10.4,6.5c-3.1,6.3 -4,5.7 -7.1,12c-1.9,3.8 -3,2.1 -7.2,1.4c7.7,-8.7 6.8,-9.3 8.7,-20.7c1,-5.9 -8.4,-4.2 -9.2,-4.1c2.4,-8.8 4,-11 -2,-13c-9.1,-3 -1.8,6.3 -14.6,33c-3.2,-2.1 -30.7,-13.8 -47.1,-1.9c-13.5,9.8 -19.1,23.4 -20.1,25.8c-1.2,-11.3 -1.4,-16.2 -2.6,-23.3c-0.7,-4.6 -0.9,-19.5 -7.3,-17.4c-9.9,3.3 2,5.4 3.4,78.7c0,0.4 -0.9,1.5 -4.7,0.1c-3.3,-20 -2.6,-18.9 -5.1,-39c-0.8,-6.5 -0.9,-14.1 -2.5,-32.4c-0.5,-5.4 1.2,-15.4 -0.8,-25.1c-0.4,-2.2 -9.2,-6.4 -9.4,4.9c-0.1,5.4 -1.4,59.9 1,71.2c-5.8,-31.6 -9.7,-30.5 -12,-44.1c-0.2,-1.4 -4.9,-14.5 -7.9,-13c-0.3,0.1 -7.6,0.4 -4.5,6.7c0.2,0.4 0.8,1.7 1.4,5.5c-4.3,0.7 -4.6,0.3 -4.7,1.2c-0.3,2.9 1.5,6.5 1.6,6.7c-0.4,-0.8 -0.5,-7.4 -9.4,-3.7c-2,0.9 1.1,7.5 1.4,8.1c-3.4,-5.4 -4.8,-9.3 -9,-6.3c-2.3,1.6 5.7,24 10.6,28.9c1.8,1.8 -2.3,3.7 12.2,29.1c1.2,2.2 3.8,6.6 13.6,28.3c1.6,3.6 -1.8,4.5 2.4,11.2c0.2,0.4 9.7,21 10.6,22.8c0.7,1.4 1,1.3 9.6,17.5" style="fill:none;stroke:#000;stroke-width:3.9px;"/></g><g id="hotspot-books"><path d="M1619.4,286.9c-0.3,-7.1 -2.8,-7.8 -6.9,-7.4c-0.2,0 -63.5,1.4 -67.1,0.5c-0.4,-0.1 -47.1,0.9 -49.6,0.7c-3,-0.3 -9.4,-0.9 -9,7.1c0.7,16.6 6.7,155.8 10.2,158.8c2.8,2.4 7.8,1.4 15.5,0.2c-0.5,10.6 6.2,6.5 17.9,5c1,6.8 3.9,3.4 10.7,2.4c0.6,3.1 1.7,3.8 19,1.7c1.4,-0.2 16.4,-2 18.1,-2.6" style="fill:none;stroke:#000;stroke-width:3.9px;"/><path d="M1620.2,286.5c1.1,-0.1 8.5,-1.7 15.7,0.2c2.4,3.2 0.5,21.5 2.5,57.3c4.1,-0.5 5.7,-0.5 8.6,0.5c2,2.7 5.5,50.9 12.3,101.5c-2.8,3.1 -7.8,3.8 -31.4,7.3c-0.7,0.1 -25.4,2.3 -34.6,3.9c-7,1.2 -11.7,2.2 -13.9,-4.6" style="fill:none;stroke:#000;stroke-width:3.9px;"/></g><g id="hotspot-screen"><path d="M1217.3,392.1c-0.5,-1.3 -5.7,-4.2 -10.5,-7.7c-4.8,-3.5 -14.9,-10.4 -23,-16.3c-5.5,-4 -18,-11.8 -21.6,-10.4c-0.6,0.3 -2.6,1.4 -3.3,2.3c-1.7,2.3 -0.8,20.7 -0.8,31.6c-0,5.2 0.1,4 -0.5,35.7c-0.3,15.5 -0.6,18.1 -0.8,32.1c-0.1,6.4 -0.4,6.7 3.4,12c4.7,6.6 27.3,28.9 27,33.4c-0,0.3 -0,0.9 -0.4,4.4c-4,-0.3 -8.1,-0 -16.2,0.3c-7.1,0.3 -9.9,0.2 -9.4,7.4c0.2,2.5 0.2,2.7 16.5,26.3c3.4,4.9 7.7,5 18.3,5.8c4.8,0.4 13.8,0.9 17.6,-0.4c1.3,-27.4 0.8,-30.1 1.3,-57.4c0.7,-34.5 1.6,-40 2.2,-70.2c0.2,-11.5 0.8,-27.5 0.3,-28.9Z" style="fill:none;stroke:#000;stroke-width:3.9px;"/></g><g id="hotspot-crayons"><path d="M981.8,466.5c-5.2,2.3 -12.4,6.7 -21.8,12c-2.2,1.2 -7.2,3.8 -9.6,4.6c-2.7,1 -1.7,1.9 -1.3,7.5c1.8,0.3 14.1,2.1 21.9,3.8c0.1,1 0.4,6.3 2.2,12.6c4.4,15.6 6.2,25.7 12.3,28.8c4.2,2.2 14.8,0.8 30.9,0.7c2,-0 48.7,-1.3 53.2,-1.8c2.5,-0.3 5,-0.2 4.8,-4.5c-0,-1 -3.5,-6.5 -5.6,-9.3c-4.8,-6.5 -11.3,-14 -13,-17.4c30.1,-18.7 33.3,-17.6 33.9,-21.8c2,-15.7 2.6,-23.1 4.7,-45.6c1.1,-12.2 1,-11.2 2.2,-23.3c0.5,-4.6 -2.5,-3.2 -29.9,-5.9c-4.6,-0.4 -75.5,-4.7 -79.6,-2.7c-2.8,1.4 -1.4,8.3 -2.3,28.2c-0.2,5.5 -1.7,25.7 -2.8,34Z" style="fill:none;stroke:#000;stroke-width:3.9px;"/></g><g id="hotspot-press"><path d="M683.5,284.3c-0.1,-4.6 -0.4,-4.7 -5.8,-4.9c-6.6,-0.2 -6.9,1.7 -7.2,4.5c-8.4,-0.3 -12.4,-1 -12.3,3.9c0.1,4.5 4,3.2 11.1,2.7c0.1,9.2 0.2,11.4 0.7,20.7c0.2,4.4 1.3,3.8 5.8,4c1.5,42.7 3.4,45.3 1.6,45.6c-1.9,0.3 -6.4,4.6 -21.6,16.8c-7.4,5.9 -7.2,5.5 -6.7,13c10.4,0.8 10.3,-0.1 30.2,1.1c2.9,63.8 5.1,154.3 5.1,166.7c0,4.3 14,2.9 14.5,0.9c1.4,-5.4 -0.9,-7 -1.5,-7.1c0.9,-6.4 1.2,-9.4 1.3,-10.3c60.2,-0.3 68.5,-0.6 113.7,-2.2c0.8,5.7 0.8,5.3 1.8,10.9c-2,1.5 -0.8,4.4 -0.7,8.9c0,2.4 8.1,2.4 10.5,1.4c1.5,-1.7 1.6,-6.5 1.7,-8.9l-1.7,-1.4c-0.5,-12.7 -0.8,-26.1 -0.7,-37.6c3,-0.6 3,0.6 5.5,-1.1c-0.9,-16.3 -1.6,-106.2 -4.9,-122.4c-1.2,-6.1 -0.9,-10.6 -0.9,-11.5c6.2,8.6 0.7,16.9 7.5,15.9c2.2,7.3 1.8,8.6 5.7,13.8c2.8,3.7 5.3,-0.8 6,-2.4c1.8,-4.3 2.2,-7.6 3.8,-14.6c0.2,-1.1 0.1,-11.6 0.1,-12.7c-0.1,-10.9 -2,-19.2 0.4,-23.5c5.3,-9.9 -3.1,-11.6 -3.9,-11.4c-0.8,-33.5 -1.5,-37.6 -4.5,-37.5c-6.8,0.2 -6,4.4 -7.1,16.9c-0.6,6.4 -0.6,14.4 -0.7,23c-0.1,15.9 2,20.1 -5.3,19.5c-2.7,-0.2 -4.1,0 -4.2,-5.7c-0.2,-9.2 -1.1,-37.5 -0.8,-43.1c0.4,-5.9 -0.9,-4.2 -1.1,-7.3c-0.1,-2.6 -0.2,-7.2 -0.1,-9.4c0.5,-8.6 -2,-9.8 5.3,-9.6c7.6,0.1 8.7,1.1 7.9,-6.3c-0.3,-2.5 -4,-0.2 -14.6,-1.2c0.8,-5.6 -1,-5.4 -5.3,-5.6c-5.8,-0.2 -5,5 -4.9,5.5c-5.1,-0.2 -5.2,0.8 -10.3,-0c-4.4,-0.7 -2.6,1.9 -3.2,6.3c2.1,3.6 13.6,-2.1 13.8,7.6c0.1,3.4 -5.5,0.7 -37.8,0.6c-17.3,-0 -28.9,0.6 -34.7,0.7c-3,0 -15.3,1.1 -45.4,1.3c-5.9,0 -4.8,-0.3 -4.7,-8.1c0,-1 10.3,-1.4 13,-1.5c0.4,-8.9 -6.6,-4.9 -13.1,-4.9" style="fill:none;stroke:#000;stroke-width:3.9px;"/></g></g></svg>