<?xml version="1.0" encoding="UTF-8" standalone="no"?><!DOCTYPE svg PUBLIC "-//W3C//DTD SVG 1.1//EN" "http://www.w3.org/Graphics/SVG/1.1/DTD/svg11.dtd"><svg width="100%" height="100%" viewBox="0 0 461 260" version="1.1" xmlns="http://www.w3.org/2000/svg" xmlns:xlink="http://www.w3.org/1999/xlink" xml:space="preserve" xmlns:serif="http://www.serif.com/" style="fill-rule:evenodd;clip-rule:evenodd;stroke-linecap:round;stroke-linejoin:round;stroke-miterlimit:1.5;"><g transform="matrix(0.24,0,0,0.24,0,0)"><g id="hotspot-newspaper"><path d="M563.804,888.788c-5.681,-6.851 8.658,-7.781 2.679,-12.589c-2.019,-1.624 2.88,0.241 22.5,-23.304c2.408,-2.889 3.11,-2.193 31.875,-34.554c0.105,-0.118 7.395,-5.52 21.696,-19.821c4.512,-4.512 5.215,-3.419 9.375,-1.339c2.51,1.255 32.122,6.358 33.75,6.429c22.762,0.99 36.436,-3.477 62.947,14.196c2.865,1.91 23.533,15.689 28.929,31.875c5.121,15.364 0.36,16.014 -23.036,58.125c-6.814,12.266 -23.21,34.722 -26.786,43.661c-1.77,4.424 -6.815,-3.727 -7.5,1.071c-0.405,2.833 3.902,9.865 -5.357,6.161c-60.801,-24.32 -88.501,-23.697 -127.5,-36.696c-22.646,-7.549 -34.358,-1.212 -28.929,-10.714c0.121,-0.212 0.33,0.061 1.875,-2.411c1.479,-2.367 1.44,-2.134 2.946,-4.286c-1.703,-0.243 -16.326,-0.056 -6.429,-8.304c0.629,-0.524 0.278,-0.813 6.964,-7.5Z" style="fill:none;stroke:#000;stroke-width:3.93px;"/></g><g id="hotspot-bag"><path d="M1091.518,780.978c-14.279,1.31 -14.273,8.472 -39.267,11.597c-27.191,3.399 -39.996,16.204 -42.633,18.84c-4.273,4.273 -7.193,5.475 -3.502,9.903c0.235,0.281 12.087,16.956 13.526,24.154c2.403,12.014 -6.745,39.287 -2.295,48.188c2.325,4.65 61.554,4.192 70.748,1.379c0.268,-5.483 0.724,-9.97 1.07,-27.092c0.071,-3.531 -0.97,-6.267 1.318,-50.972c0.349,-6.816 0.567,-23.9 1.034,-35.998Z" style="fill:none;stroke:#000;stroke-width:3.93px;"/></g><g id="hotspot-brushes"><path d="M1337.371,751.175c-11.639,1.738 -10.958,6.995 -11.218,7.774c-2.955,8.865 7.543,10.993 7.729,11.078c-0.219,4.088 -0.032,4.069 -0.405,51.17c0.652,0.437 4.355,8.045 16.071,10.781c15.113,3.529 26.879,4.185 41.961,-1.824c1.657,-0.66 11.362,-8.387 11.336,-9.567c-1.003,-46.146 -3.003,-48.536 0.814,-49.636c11.21,-3.229 8.16,-17.047 -1.417,-15.816c10.174,-15.88 42.884,-62.574 51.052,-72.266c1.69,-2.006 39.235,-45.299 24.208,-44.143c-1.735,0.133 -19.663,16.679 -25.036,22.793c0.686,-9.298 -0.65,-46.292 1.031,-48.628c0.909,-1.263 10.256,-14.245 5.289,-18.715c-4.005,-3.604 -9.942,5.645 -10.375,6.51c-3.14,6.28 -3.953,5.669 -7.12,12.002c-1.911,3.823 -2.956,2.113 -7.244,1.367c7.702,-8.716 6.772,-9.318 8.668,-20.692c0.976,-5.856 -8.365,-4.208 -9.154,-4.068c2.353,-8.822 3.984,-11.013 -2.034,-13.019c-9.141,-3.047 -1.754,6.338 -14.577,33.024c-3.167,-2.14 -30.718,-13.786 -47.061,-1.901c-13.45,9.782 -19.131,23.416 -20.139,25.835c-1.157,-11.349 -1.424,-16.18 -2.587,-23.337c-0.742,-4.57 -0.919,-19.493 -7.327,-17.362c-9.939,3.305 1.971,5.414 3.404,78.74c0.008,0.423 -0.894,1.54 -4.667,0.072c-3.337,-20.024 -2.639,-18.874 -5.07,-39.044c-0.786,-6.523 -0.874,-14.085 -2.499,-32.352c-0.478,-5.37 1.165,-15.357 -0.783,-25.099c-0.431,-2.157 -9.152,-6.401 -9.358,4.882c-0.098,5.368 -1.413,59.857 1.017,71.199c-5.753,-31.642 -9.736,-30.545 -12.002,-44.143c-0.225,-1.351 -4.937,-14.517 -7.934,-13.019c-0.299,0.15 -7.645,0.375 -4.475,6.713c0.203,0.406 0.836,1.673 1.424,5.492c-4.278,0.676 -4.586,0.296 -4.679,1.221c-0.287,2.869 1.546,6.485 1.627,6.713c-0.445,-0.788 -0.545,-7.438 -9.358,-3.662c-2.035,0.872 1.14,7.54 1.424,8.137c-3.411,-5.4 -4.772,-9.291 -8.951,-6.306c-2.272,1.623 5.741,24.049 10.578,28.886c1.785,1.785 -2.314,3.681 12.205,29.09c1.246,2.18 3.797,6.645 13.629,28.276c1.626,3.577 -1.762,4.463 2.441,11.188c0.239,0.383 9.736,20.959 10.578,22.784c0.668,1.448 0.964,1.257 9.561,17.494" style="fill:none;stroke:#000;stroke-width:3.93px;"/></g><g id="hotspot-books"><path d="M1619.425,286.879c-0.285,-7.119 -2.763,-7.835 -6.895,-7.371c-0.195,0.022 -63.468,1.411 -67.124,0.497c-0.418,-0.105 -47.08,0.923 -49.62,0.692c-2.992,-0.272 -9.373,-0.935 -9.035,7.133c0.694,16.59 6.652,155.776 10.224,158.83c2.793,2.387 7.756,1.44 15.455,0.226c-0.48,10.578 6.223,6.485 17.87,5.031c0.973,6.814 3.876,3.396 10.662,2.352c0.619,3.095 1.66,3.835 19.022,1.664c1.449,-0.181 16.359,-2.045 18.07,-2.615" style="fill:none;stroke:#000;stroke-width:3.93px;"/><path d="M1620.183,286.456c1.071,-0.148 8.524,-1.682 15.742,0.186c2.372,3.217 0.473,21.456 2.542,57.328c4.055,-0.506 5.687,-0.464 8.623,0.533c1.987,2.679 5.493,50.93 12.258,101.527c-2.774,3.096 -7.8,3.796 -31.363,7.287c-0.704,0.104 -25.409,2.335 -34.555,3.86c-6.984,1.164 -11.69,2.205 -13.95,-4.573" style="fill:none;stroke:#000;stroke-width:3.93px;"/></g><g id="hotspot-screen"><path d="M1217.316,392.108c-0.459,-1.272 -5.663,-4.212 -10.509,-7.716c-4.784,-3.459 -14.913,-10.352 -23.047,-16.317c-5.512,-4.042 -18.04,-11.825 -21.557,-10.415c-0.636,0.255 -2.614,1.402 -3.27,2.301c-1.652,2.263 -0.784,20.682 -0.848,31.609c-0.03,5.193 0.086,4.032 -0.547,35.682c-0.311,15.529 -0.618,18.086 -0.785,32.139c-0.076,6.426 -0.395,6.689 3.391,11.99c4.703,6.584 27.306,28.942 27.007,33.426c-0.02,0.304 -0.028,0.887 -0.368,4.413c-4.034,-0.277 -8.124,-0.005 -16.168,0.345c-7.12,0.31 -9.933,0.185 -9.381,7.353c0.19,2.474 0.238,2.698 16.471,26.281c3.362,4.884 7.701,4.967 18.26,5.801c4.758,0.376 13.751,0.872 17.585,-0.363c1.286,-27.365 0.818,-30.056 1.333,-57.37c0.651,-34.515 1.618,-40.001 2.174,-70.224c0.211,-11.467 0.789,-27.47 0.26,-28.935Z" style="fill:none;stroke:#000;stroke-width:3.93px;"/></g><g id="hotspot-crayons"><path d="M981.824,466.505c-5.176,2.328 -12.361,6.658 -21.824,12.031c-2.169,1.231 -7.199,3.769 -9.57,4.631c-2.702,0.983 -1.664,1.863 -1.337,7.463c1.761,0.266 14.067,2.126 21.926,3.84c0.07,1.022 0.441,6.33 2.226,12.616c4.429,15.599 6.152,25.73 12.266,28.825c4.248,2.151 14.831,0.801 30.91,0.736c1.977,-0.008 48.697,-1.315 53.199,-1.79c2.508,-0.264 5.003,-0.218 4.793,-4.476c-0.047,-0.957 -3.487,-6.458 -5.616,-9.312c-4.843,-6.493 -11.279,-13.986 -12.998,-17.446c30.065,-18.744 33.302,-17.558 33.851,-21.805c2.023,-15.667 2.623,-23.149 4.666,-45.63c1.106,-12.171 0.991,-11.191 2.202,-23.305c0.456,-4.563 -2.502,-3.214 -29.929,-5.888c-4.613,-0.45 -75.546,-4.677 -79.606,-2.699c-2.827,1.377 -1.429,8.305 -2.331,28.212c-0.25,5.515 -1.663,25.726 -2.829,33.997Z" style="fill:none;stroke:#000;stroke-width:3.93px;"/></g><g id="hotspot-press"><path d="M683.467,284.258c-0.07,-4.62 -0.352,-4.699 -5.752,-4.862c-6.622,-0.201 -6.938,1.715 -7.172,4.536c-8.411,-0.35 -12.383,-1.004 -12.284,3.926c0.09,4.507 3.96,3.198 11.074,2.717c0.092,9.199 0.24,11.384 0.695,20.675c0.215,4.379 1.337,3.772 5.756,3.986c1.456,42.735 3.356,45.35 1.636,45.596c-1.86,0.266 -6.393,4.569 -21.636,16.768c-7.361,5.891 -7.161,5.456 -6.652,12.983c10.375,0.831 10.331,-0.055 30.151,1.09c2.859,63.819 5.062,154.303 5.107,166.742c0.016,4.313 13.992,2.857 14.485,0.923c1.366,-5.358 -0.895,-6.955 -1.461,-7.068c0.881,-6.397 1.23,-9.424 1.275,-10.255c60.213,-0.32 68.509,-0.611 113.744,-2.161c0.816,5.707 0.766,5.265 1.793,10.919c-1.982,1.549 -0.761,4.423 -0.683,8.925c0.041,2.373 8.085,2.355 10.54,1.426c1.527,-1.686 1.553,-6.469 1.66,-8.912l-1.669,-1.434c-0.502,-12.723 -0.779,-26.109 -0.667,-37.613c3.042,-0.557 3.022,0.561 5.471,-1.07c-0.859,-16.264 -1.634,-106.194 -4.878,-122.416c-1.211,-6.053 -0.927,-10.588 -0.87,-11.509c6.201,8.589 0.711,16.945 7.518,15.932c2.152,7.295 1.755,8.627 5.737,13.806c2.848,3.705 5.33,-0.773 6.009,-2.362c1.822,-4.268 2.211,-7.636 3.782,-14.605c0.24,-1.064 0.114,-11.596 0.103,-12.652c-0.116,-10.853 -1.976,-19.211 0.351,-23.5c5.344,-9.851 -3.103,-11.64 -3.879,-11.446c-0.756,-33.508 -1.487,-37.587 -4.507,-37.502c-6.81,0.192 -5.994,4.429 -7.082,16.913c-0.554,6.36 -0.642,14.401 -0.672,23.008c-0.056,15.944 1.989,20.135 -5.32,19.523c-2.704,-0.226 -4.063,0.023 -4.194,-5.731c-0.21,-9.235 -1.132,-37.539 -0.763,-43.094c0.389,-5.858 -0.914,-4.197 -1.063,-7.288c-0.126,-2.611 -0.214,-7.205 -0.092,-9.367c0.484,-8.598 -2.012,-9.78 5.304,-9.65c7.572,0.134 8.668,1.144 7.896,-6.303c-0.26,-2.509 -4.046,-0.193 -14.623,-1.155c0.789,-5.646 -0.981,-5.401 -5.348,-5.574c-5.806,-0.231 -4.991,4.951 -4.855,5.465c-5.122,-0.187 -5.194,0.8 -10.294,-0.005c-4.406,-0.696 -2.603,1.854 -3.245,6.257c2.133,3.607 13.595,-2.086 13.754,7.575c0.057,3.432 -5.48,0.655 -37.809,0.58c-17.323,-0.041 -28.895,0.645 -34.749,0.717c-3.004,0.037 -15.281,1.078 -45.406,1.279c-5.93,0.039 -4.845,-0.315 -4.688,-8.113c0.02,-0.977 10.34,-1.379 12.965,-1.455c0.403,-8.861 -6.62,-4.866 -13.146,-4.856" style="fill:none;stroke:#000;stroke-width:3.93px;"/></g></g></svg>